<?xml version="1.0" encoding="UTF-8" standalone="no"?>
<!DOCTYPE svg PUBLIC "-//W3C//DTD SVG 1.1//EN"
 "http://www.w3.org/Graphics/SVG/1.1/DTD/svg11.dtd">
<!-- Generated by graphviz version 14.1.1 (20251213.1925)
 -->
<!-- Title: DebateDAG Pages: 1 -->
<svg width="344pt" height="279pt"
 viewBox="0.00 0.00 344.00 279.00" xmlns="http://www.w3.org/2000/svg" xmlns:xlink="http://www.w3.org/1999/xlink">
<g id="graph0" class="graph" transform="scale(1 1) rotate(0) translate(4 274.5)">
<title>DebateDAG</title>
<polygon fill="white" stroke="none" points="-4,4 -4,-274.5 339.77,-274.5 339.77,4 -4,4"/>
<!-- UserInput -->
<g id="node1" class="node">
<title>UserInput</title>
<path fill="none" stroke="black" d="M210.25,-270.5C210.25,-270.5 127.5,-270.5 127.5,-270.5 121.5,-270.5 115.5,-264.5 115.5,-258.5 115.5,-258.5 115.5,-246.5 115.5,-246.5 115.5,-240.5 121.5,-234.5 127.5,-234.5 127.5,-234.5 210.25,-234.5 210.25,-234.5 216.25,-234.5 222.25,-240.5 222.25,-246.5 222.25,-246.5 222.25,-258.5 222.25,-258.5 222.25,-264.5 216.25,-270.5 210.25,-270.5"/>
<text xml:space="preserve" text-anchor="middle" x="168.88" y="-247.45" font-family="Times New Roman,serif" font-size="14.00">User Input Node</text>
</g>
<!-- Coordinator -->
<g id="node2" class="node">
<title>Coordinator</title>
<path fill="none" stroke="black" d="M217.75,-197.5C217.75,-197.5 120,-197.5 120,-197.5 114,-197.5 108,-191.5 108,-185.5 108,-185.5 108,-173.5 108,-173.5 108,-167.5 114,-161.5 120,-161.5 120,-161.5 217.75,-161.5 217.75,-161.5 223.75,-161.5 229.75,-167.5 229.75,-173.5 229.75,-173.5 229.75,-185.5 229.75,-185.5 229.75,-191.5 223.75,-197.5 217.75,-197.5"/>
<text xml:space="preserve" text-anchor="middle" x="168.88" y="-174.45" font-family="Times New Roman,serif" font-size="14.00">Coordinator Router</text>
</g>
<!-- UserInput&#45;&gt;Coordinator -->
<g id="edge1" class="edge">
<title>UserInput&#45;&gt;Coordinator</title>
<path fill="none" stroke="black" d="M168.88,-234.31C168.88,-226.73 168.88,-217.6 168.88,-209.04"/>
<polygon fill="black" stroke="black" points="172.38,-209.04 168.88,-199.04 165.38,-209.04 172.38,-209.04"/>
</g>
<!-- AgentA -->
<g id="node3" class="node">
<title>AgentA</title>
<path fill="none" stroke="black" d="M140.75,-109C140.75,-109 103,-109 103,-109 97,-109 91,-103 91,-97 91,-97 91,-85 91,-85 91,-79 97,-73 103,-73 103,-73 140.75,-73 140.75,-73 146.75,-73 152.75,-79 152.75,-85 152.75,-85 152.75,-97 152.75,-97 152.75,-103 146.75,-109 140.75,-109"/>
<text xml:space="preserve" text-anchor="middle" x="121.88" y="-85.95" font-family="Times New Roman,serif" font-size="14.00">Agent A</text>
</g>
<!-- Coordinator&#45;&gt;AgentA -->
<g id="edge2" class="edge">
<title>Coordinator&#45;&gt;AgentA</title>
<path fill="none" stroke="black" d="M138.41,-161.35C132.29,-156.42 126.66,-150.45 123.12,-143.5 119.57,-136.51 118.3,-128.27 118.17,-120.46"/>
<polygon fill="black" stroke="black" points="121.66,-120.8 118.63,-110.65 114.67,-120.48 121.66,-120.8"/>
<text xml:space="preserve" text-anchor="middle" x="162.5" y="-130.2" font-family="Times New Roman,serif" font-size="14.00">Turn: Agent A</text>
</g>
<!-- AgentB -->
<g id="node4" class="node">
<title>AgentB</title>
<path fill="none" stroke="black" d="M49.75,-109C49.75,-109 12,-109 12,-109 6,-109 0,-103 0,-97 0,-97 0,-85 0,-85 0,-79 6,-73 12,-73 12,-73 49.75,-73 49.75,-73 55.75,-73 61.75,-79 61.75,-85 61.75,-85 61.75,-97 61.75,-97 61.75,-103 55.75,-109 49.75,-109"/>
<text xml:space="preserve" text-anchor="middle" x="30.88" y="-85.95" font-family="Times New Roman,serif" font-size="14.00">Agent B</text>
</g>
<!-- Coordinator&#45;&gt;AgentB -->
<g id="edge3" class="edge">
<title>Coordinator&#45;&gt;AgentB</title>
<path fill="none" stroke="black" d="M107.77,-169.28C77.68,-163.43 45.8,-154.82 36.12,-143.5 30.73,-137.19 28.54,-128.72 27.95,-120.47"/>
<polygon fill="black" stroke="black" points="31.45,-120.75 28.01,-110.73 24.45,-120.71 31.45,-120.75"/>
<text xml:space="preserve" text-anchor="middle" x="75.5" y="-130.2" font-family="Times New Roman,serif" font-size="14.00">Turn: Agent B</text>
</g>
<!-- Judge -->
<g id="node6" class="node">
<title>Judge</title>
<path fill="none" stroke="black" d="M312.12,-109C312.12,-109 255.62,-109 255.62,-109 249.62,-109 243.62,-103 243.62,-97 243.62,-97 243.62,-85 243.62,-85 243.62,-79 249.62,-73 255.62,-73 255.62,-73 312.12,-73 312.12,-73 318.12,-73 324.12,-79 324.12,-85 324.12,-85 324.12,-97 324.12,-97 324.12,-103 318.12,-109 312.12,-109"/>
<text xml:space="preserve" text-anchor="middle" x="283.88" y="-85.95" font-family="Times New Roman,serif" font-size="14.00">Judge Node</text>
</g>
<!-- Coordinator&#45;&gt;Judge -->
<g id="edge7" class="edge">
<title>Coordinator&#45;&gt;Judge</title>
<path fill="none" stroke="black" d="M202.72,-161.01C211.82,-155.79 221.46,-149.78 229.88,-143.5 240.26,-135.75 250.77,-126.19 259.73,-117.42"/>
<polygon fill="black" stroke="black" points="262.13,-119.97 266.72,-110.41 257.18,-115.03 262.13,-119.97"/>
<text xml:space="preserve" text-anchor="middle" x="292.27" y="-130.2" font-family="Times New Roman,serif" font-size="14.00">After N Rounds</text>
</g>
<!-- Memory -->
<g id="node5" class="node">
<title>Memory</title>
<path fill="none" stroke="black" d="M158.38,-36C158.38,-36 85.38,-36 85.38,-36 79.38,-36 73.38,-30 73.38,-24 73.38,-24 73.38,-12 73.38,-12 73.38,-6 79.38,0 85.38,0 85.38,0 158.38,0 158.38,0 164.38,0 170.38,-6 170.38,-12 170.38,-12 170.38,-24 170.38,-24 170.38,-30 164.38,-36 158.38,-36"/>
<text xml:space="preserve" text-anchor="middle" x="121.88" y="-12.95" font-family="Times New Roman,serif" font-size="14.00">Memory Node</text>
</g>
<!-- AgentA&#45;&gt;Memory -->
<g id="edge4" class="edge">
<title>AgentA&#45;&gt;Memory</title>
<path fill="none" stroke="black" d="M121.88,-72.81C121.88,-65.23 121.88,-56.1 121.88,-47.54"/>
<polygon fill="black" stroke="black" points="125.38,-47.54 121.88,-37.54 118.38,-47.54 125.38,-47.54"/>
</g>
<!-- AgentB&#45;&gt;Memory -->
<g id="edge5" class="edge">
<title>AgentB&#45;&gt;Memory</title>
<path fill="none" stroke="black" d="M52.9,-72.81C64.33,-63.9 78.48,-52.86 90.98,-43.1"/>
<polygon fill="black" stroke="black" points="92.81,-46.12 98.54,-37.21 88.5,-40.6 92.81,-46.12"/>
</g>
<!-- Memory&#45;&gt;Coordinator -->
<g id="edge6" class="edge">
<title>Memory&#45;&gt;Coordinator</title>
<path fill="none" stroke="black" d="M140.44,-36.38C160.06,-56.14 189.81,-90.44 201.88,-127 204.17,-133.96 204.58,-136.68 201.88,-143.5 200.66,-146.56 199.04,-149.5 197.17,-152.29"/>
<polygon fill="black" stroke="black" points="194.52,-149.99 190.99,-159.98 199.98,-154.38 194.52,-149.99"/>
</g>
<!-- END -->
<g id="node7" class="node">
<title>END</title>
<ellipse fill="none" stroke="black" cx="283.88" cy="-18" rx="29.86" ry="18"/>
<text xml:space="preserve" text-anchor="middle" x="283.88" y="-12.95" font-family="Times New Roman,serif" font-size="14.00">END</text>
</g>
<!-- Judge&#45;&gt;END -->
<g id="edge8" class="edge">
<title>Judge&#45;&gt;END</title>
<path fill="none" stroke="black" d="M283.88,-72.81C283.88,-65.23 283.88,-56.1 283.88,-47.54"/>
<polygon fill="black" stroke="black" points="287.38,-47.54 283.88,-37.54 280.38,-47.54 287.38,-47.54"/>
</g>
</g>
</svg>
